# MagicaVoxel @ Ephtracy

# group
o 

# material
mtllib flor.mtl
usemtl palette

# normals
vn -1 0 0
vn 1 0 0
vn 0 0 1
vn 0 0 -1
vn 0 -1 0
vn 0 1 0

# texcoords
vt 0.126953 0.5
vt 0.130859 0.5

# verts
v -1.9 0 -1.5
v -1.9 0 -1.6
v -1.9 0.5 -1.5
v -1.9 0.5 -1.6
v -1.9 0.6 -1.5
v -1.9 0.6 -1.6
v -1.7 0 -0.4
v -1.7 0 -0.5
v -1.7 0.5 -0.4
v -1.7 0.5 -0.5
v -1.7 0.6 -0.4
v -1.7 0.6 -0.5
v -1.6 0 1.7
v -1.6 0 1.6
v -1.6 0.5 1.7
v -1.6 0.5 1.6
v -1.6 0.6 1.7
v -1.6 0.6 1.6
v -1.5 0 0.7
v -1.5 0 0.6
v -1.5 0.5 0.7
v -1.5 0.5 0.6
v -1.5 0.6 0.7
v -1.5 0.6 0.6
v -1.2 0 -0.9
v -1.2 0 -1
v -1.2 0.5 -0.9
v -1.2 0.5 -1
v -1.2 0.6 -0.9
v -1.2 0.6 -1
v -0.7 0 0.9
v -0.7 0 0.8
v -0.7 0.5 0.9
v -0.7 0.5 0.8
v -0.7 0.6 0.9
v -0.7 0.6 0.8
v -0.6 0 -0.5
v -0.6 0 -0.6
v -0.6 0.5 -0.5
v -0.6 0.5 -0.6
v -0.6 0.6 -0.5
v -0.6 0.6 -0.6
v -0.1 0 1.7
v -0.1 0 1.6
v -0.1 0 -1.1
v -0.1 0 -1.2
v -0.1 0.5 1.7
v -0.1 0.5 1.6
v -0.1 0.5 -1.1
v -0.1 0.5 -1.2
v -0.1 0.6 1.7
v -0.1 0.6 1.6
v -0.1 0.6 -1.1
v -0.1 0.6 -1.2
v 0 0 0.2
v 0 0 0.1
v 0 0.5 0.2
v 0 0.5 0.1
v 0 0.6 0.2
v 0 0.6 0.1
v 0.1 0 1.1
v 0.1 0 1
v 0.1 0.5 1.1
v 0.1 0.5 1
v 0.1 0.6 1.1
v 0.1 0.6 1
v 0.4 0 1.9
v 0.4 0 1.8
v 0.4 0 -0.4
v 0.4 0 -0.5
v 0.4 0.5 1.9
v 0.4 0.5 1.8
v 0.4 0.5 -0.4
v 0.4 0.5 -0.5
v 0.4 0.6 1.9
v 0.4 0.6 1.8
v 0.4 0.6 -0.4
v 0.4 0.6 -0.5
v 0.6 0 0.7
v 0.6 0 0.6
v 0.6 0.5 0.7
v 0.6 0.5 0.6
v 0.6 0.6 0.7
v 0.6 0.6 0.6
v 0.7 0 0.3
v 0.7 0 0.2
v 0.7 0 -0.6
v 0.7 0 -0.7
v 0.7 0.5 0.3
v 0.7 0.5 0.2
v 0.7 0.5 -0.6
v 0.7 0.5 -0.7
v 0.7 0.6 0.3
v 0.7 0.6 0.2
v 0.7 0.6 -0.6
v 0.7 0.6 -0.7
v 0.9 0 1.3
v 0.9 0 1.2
v 0.9 0.5 1.3
v 0.9 0.5 1.2
v 0.9 0.6 1.3
v 0.9 0.6 1.2
v 1 0 -1.6
v 1 0 -1.7
v 1 0.5 -1.6
v 1 0.5 -1.7
v 1 0.6 -1.6
v 1 0.6 -1.7
v 1.6 0 1.7
v 1.6 0 1.6
v 1.6 0.5 1.7
v 1.6 0.5 1.6
v 1.6 0.6 1.7
v 1.6 0.6 1.6
v 1.8 0 0.5
v 1.8 0 0.4
v 1.8 0 -0.7
v 1.8 0 -0.8
v 1.8 0.5 0.5
v 1.8 0.5 0.4
v 1.8 0.5 -0.7
v 1.8 0.5 -0.8
v 1.8 0.6 0.5
v 1.8 0.6 0.4
v 1.8 0.6 -0.7
v 1.8 0.6 -0.8
v -1.8 0 -1.5
v -1.8 0 -1.6
v -1.8 0.5 -1.5
v -1.8 0.5 -1.6
v -1.8 0.6 -1.5
v -1.8 0.6 -1.6
v -1.6 0 -0.4
v -1.6 0 -0.5
v -1.6 0.5 -0.4
v -1.6 0.5 -0.5
v -1.6 0.6 -0.4
v -1.6 0.6 -0.5
v -1.5 0 1.7
v -1.5 0 1.6
v -1.5 0.5 1.7
v -1.5 0.5 1.6
v -1.5 0.6 1.7
v -1.5 0.6 1.6
v -1.4 0 0.7
v -1.4 0 0.6
v -1.4 0.5 0.7
v -1.4 0.5 0.6
v -1.4 0.6 0.7
v -1.4 0.6 0.6
v -1.1 0 -0.9
v -1.1 0 -1
v -1.1 0.5 -0.9
v -1.1 0.5 -1
v -1.1 0.6 -0.9
v -1.1 0.6 -1
v -0.6 0 0.9
v -0.6 0 0.8
v -0.6 0.5 0.9
v -0.6 0.5 0.8
v -0.6 0.6 0.9
v -0.6 0.6 0.8
v -0.5 0 -0.5
v -0.5 0 -0.6
v -0.5 0.5 -0.5
v -0.5 0.5 -0.6
v -0.5 0.6 -0.5
v -0.5 0.6 -0.6
v 0 0 1.7
v 0 0 1.6
v 0 0 -1.1
v 0 0 -1.2
v 0 0.5 1.7
v 0 0.5 1.6
v 0 0.5 -1.1
v 0 0.5 -1.2
v 0 0.6 1.7
v 0 0.6 1.6
v 0 0.6 -1.1
v 0 0.6 -1.2
v 0.1 0 0.2
v 0.1 0 0.1
v 0.1 0.5 0.2
v 0.1 0.5 0.1
v 0.1 0.6 0.2
v 0.1 0.6 0.1
v 0.2 0 1.1
v 0.2 0 1
v 0.2 0.5 1.1
v 0.2 0.5 1
v 0.2 0.6 1.1
v 0.2 0.6 1
v 0.5 0 1.9
v 0.5 0 1.8
v 0.5 0 -0.4
v 0.5 0 -0.5
v 0.5 0.5 1.9
v 0.5 0.5 1.8
v 0.5 0.5 -0.4
v 0.5 0.5 -0.5
v 0.5 0.6 1.9
v 0.5 0.6 1.8
v 0.5 0.6 -0.4
v 0.5 0.6 -0.5
v 0.7 0 0.7
v 0.7 0 0.6
v 0.7 0.5 0.7
v 0.7 0.5 0.6
v 0.7 0.6 0.7
v 0.7 0.6 0.6
v 0.8 0 0.3
v 0.8 0 0.2
v 0.8 0 -0.6
v 0.8 0 -0.7
v 0.8 0.5 0.3
v 0.8 0.5 0.2
v 0.8 0.5 -0.6
v 0.8 0.5 -0.7
v 0.8 0.6 0.3
v 0.8 0.6 0.2
v 0.8 0.6 -0.6
v 0.8 0.6 -0.7
v 1 0 1.3
v 1 0 1.2
v 1 0.5 1.3
v 1 0.5 1.2
v 1 0.6 1.3
v 1 0.6 1.2
v 1.1 0 -1.6
v 1.1 0 -1.7
v 1.1 0.5 -1.6
v 1.1 0.5 -1.7
v 1.1 0.6 -1.6
v 1.1 0.6 -1.7
v 1.7 0 1.7
v 1.7 0 1.6
v 1.7 0.5 1.7
v 1.7 0.5 1.6
v 1.7 0.6 1.7
v 1.7 0.6 1.6
v 1.9 0 0.5
v 1.9 0 0.4
v 1.9 0 -0.7
v 1.9 0 -0.8
v 1.9 0.5 0.5
v 1.9 0.5 0.4
v 1.9 0.5 -0.7
v 1.9 0.5 -0.8
v 1.9 0.6 0.5
v 1.9 0.6 0.4
v 1.9 0.6 -0.7
v 1.9 0.6 -0.8
v 0.4 0 1.9
v 0.4 0.5 1.9
v 0.4 0.6 1.9
v 0.5 0 1.9
v 0.5 0.5 1.9
v 0.5 0.6 1.9
v -1.6 0 1.7
v -1.6 0.5 1.7
v -1.6 0.6 1.7
v -1.5 0 1.7
v -1.5 0.5 1.7
v -1.5 0.6 1.7
v -0.1 0 1.7
v -0.1 0.5 1.7
v -0.1 0.6 1.7
v 0 0 1.7
v 0 0.5 1.7
v 0 0.6 1.7
v 1.6 0 1.7
v 1.6 0.5 1.7
v 1.6 0.6 1.7
v 1.7 0 1.7
v 1.7 0.5 1.7
v 1.7 0.6 1.7
v 0.9 0 1.3
v 0.9 0.5 1.3
v 0.9 0.6 1.3
v 1 0 1.3
v 1 0.5 1.3
v 1 0.6 1.3
v 0.1 0 1.1
v 0.1 0.5 1.1
v 0.1 0.6 1.1
v 0.2 0 1.1
v 0.2 0.5 1.1
v 0.2 0.6 1.1
v -0.7 0 0.9
v -0.7 0.5 0.9
v -0.7 0.6 0.9
v -0.6 0 0.9
v -0.6 0.5 0.9
v -0.6 0.6 0.9
v -1.5 0 0.7
v -1.5 0.5 0.7
v -1.5 0.6 0.7
v -1.4 0 0.7
v -1.4 0.5 0.7
v -1.4 0.6 0.7
v 0.6 0 0.7
v 0.6 0.5 0.7
v 0.6 0.6 0.7
v 0.7 0 0.7
v 0.7 0.5 0.7
v 0.7 0.6 0.7
v 1.8 0 0.5
v 1.8 0.5 0.5
v 1.8 0.6 0.5
v 1.9 0 0.5
v 1.9 0.5 0.5
v 1.9 0.6 0.5
v 0.7 0 0.3
v 0.7 0.5 0.3
v 0.7 0.6 0.3
v 0.8 0 0.3
v 0.8 0.5 0.3
v 0.8 0.6 0.3
v 0 0 0.2
v 0 0.5 0.2
v 0 0.6 0.2
v 0.1 0 0.2
v 0.1 0.5 0.2
v 0.1 0.6 0.2
v -1.7 0 -0.4
v -1.7 0.5 -0.4
v -1.7 0.6 -0.4
v -1.6 0 -0.4
v -1.6 0.5 -0.4
v -1.6 0.6 -0.4
v 0.4 0 -0.4
v 0.4 0.5 -0.4
v 0.4 0.6 -0.4
v 0.5 0 -0.4
v 0.5 0.5 -0.4
v 0.5 0.6 -0.4
v -0.6 0 -0.5
v -0.6 0.5 -0.5
v -0.6 0.6 -0.5
v -0.5 0 -0.5
v -0.5 0.5 -0.5
v -0.5 0.6 -0.5
v 0.7 0 -0.6
v 0.7 0.5 -0.6
v 0.7 0.6 -0.6
v 0.8 0 -0.6
v 0.8 0.5 -0.6
v 0.8 0.6 -0.6
v 1.8 0 -0.7
v 1.8 0.5 -0.7
v 1.8 0.6 -0.7
v 1.9 0 -0.7
v 1.9 0.5 -0.7
v 1.9 0.6 -0.7
v -1.2 0 -0.9
v -1.2 0.5 -0.9
v -1.2 0.6 -0.9
v -1.1 0 -0.9
v -1.1 0.5 -0.9
v -1.1 0.6 -0.9
v -0.1 0 -1.1
v -0.1 0.5 -1.1
v -0.1 0.6 -1.1
v 0 0 -1.1
v 0 0.5 -1.1
v 0 0.6 -1.1
v -1.9 0 -1.5
v -1.9 0.5 -1.5
v -1.9 0.6 -1.5
v -1.8 0 -1.5
v -1.8 0.5 -1.5
v -1.8 0.6 -1.5
v 1 0 -1.6
v 1 0.5 -1.6
v 1 0.6 -1.6
v 1.1 0 -1.6
v 1.1 0.5 -1.6
v 1.1 0.6 -1.6
v 0.4 0 1.8
v 0.4 0.5 1.8
v 0.4 0.6 1.8
v 0.5 0 1.8
v 0.5 0.5 1.8
v 0.5 0.6 1.8
v -1.6 0 1.6
v -1.6 0.5 1.6
v -1.6 0.6 1.6
v -1.5 0 1.6
v -1.5 0.5 1.6
v -1.5 0.6 1.6
v -0.1 0 1.6
v -0.1 0.5 1.6
v -0.1 0.6 1.6
v 0 0 1.6
v 0 0.5 1.6
v 0 0.6 1.6
v 1.6 0 1.6
v 1.6 0.5 1.6
v 1.6 0.6 1.6
v 1.7 0 1.6
v 1.7 0.5 1.6
v 1.7 0.6 1.6
v 0.9 0 1.2
v 0.9 0.5 1.2
v 0.9 0.6 1.2
v 1 0 1.2
v 1 0.5 1.2
v 1 0.6 1.2
v 0.1 0 1
v 0.1 0.5 1
v 0.1 0.6 1
v 0.2 0 1
v 0.2 0.5 1
v 0.2 0.6 1
v -0.7 0 0.8
v -0.7 0.5 0.8
v -0.7 0.6 0.8
v -0.6 0 0.8
v -0.6 0.5 0.8
v -0.6 0.6 0.8
v -1.5 0 0.6
v -1.5 0.5 0.6
v -1.5 0.6 0.6
v -1.4 0 0.6
v -1.4 0.5 0.6
v -1.4 0.6 0.6
v 0.6 0 0.6
v 0.6 0.5 0.6
v 0.6 0.6 0.6
v 0.7 0 0.6
v 0.7 0.5 0.6
v 0.7 0.6 0.6
v 1.8 0 0.4
v 1.8 0.5 0.4
v 1.8 0.6 0.4
v 1.9 0 0.4
v 1.9 0.5 0.4
v 1.9 0.6 0.4
v 0.7 0 0.2
v 0.7 0.5 0.2
v 0.7 0.6 0.2
v 0.8 0 0.2
v 0.8 0.5 0.2
v 0.8 0.6 0.2
v 0 0 0.1
v 0 0.5 0.1
v 0 0.6 0.1
v 0.1 0 0.1
v 0.1 0.5 0.1
v 0.1 0.6 0.1
v -1.7 0 -0.5
v -1.7 0.5 -0.5
v -1.7 0.6 -0.5
v -1.6 0 -0.5
v -1.6 0.5 -0.5
v -1.6 0.6 -0.5
v 0.4 0 -0.5
v 0.4 0.5 -0.5
v 0.4 0.6 -0.5
v 0.5 0 -0.5
v 0.5 0.5 -0.5
v 0.5 0.6 -0.5
v -0.6 0 -0.6
v -0.6 0.5 -0.6
v -0.6 0.6 -0.6
v -0.5 0 -0.6
v -0.5 0.5 -0.6
v -0.5 0.6 -0.6
v 0.7 0 -0.7
v 0.7 0.5 -0.7
v 0.7 0.6 -0.7
v 0.8 0 -0.7
v 0.8 0.5 -0.7
v 0.8 0.6 -0.7
v 1.8 0 -0.8
v 1.8 0.5 -0.8
v 1.8 0.6 -0.8
v 1.9 0 -0.8
v 1.9 0.5 -0.8
v 1.9 0.6 -0.8
v -1.2 0 -1
v -1.2 0.5 -1
v -1.2 0.6 -1
v -1.1 0 -1
v -1.1 0.5 -1
v -1.1 0.6 -1
v -0.1 0 -1.2
v -0.1 0.5 -1.2
v -0.1 0.6 -1.2
v 0 0 -1.2
v 0 0.5 -1.2
v 0 0.6 -1.2
v -1.9 0 -1.6
v -1.9 0.5 -1.6
v -1.9 0.6 -1.6
v -1.8 0 -1.6
v -1.8 0.5 -1.6
v -1.8 0.6 -1.6
v 1 0 -1.7
v 1 0.5 -1.7
v 1 0.6 -1.7
v 1.1 0 -1.7
v 1.1 0.5 -1.7
v 1.1 0.6 -1.7
v 0.4 0 1.9
v 0.5 0 1.9
v 0.4 0 1.8
v 0.5 0 1.8
v -1.6 0 1.7
v -1.5 0 1.7
v -0.1 0 1.7
v 0 0 1.7
v 1.6 0 1.7
v 1.7 0 1.7
v -1.6 0 1.6
v -1.5 0 1.6
v -0.1 0 1.6
v 0 0 1.6
v 1.6 0 1.6
v 1.7 0 1.6
v 0.9 0 1.3
v 1 0 1.3
v 0.9 0 1.2
v 1 0 1.2
v 0.1 0 1.1
v 0.2 0 1.1
v 0.1 0 1
v 0.2 0 1
v -0.7 0 0.9
v -0.6 0 0.9
v -0.7 0 0.8
v -0.6 0 0.8
v -1.5 0 0.7
v -1.4 0 0.7
v 0.6 0 0.7
v 0.7 0 0.7
v -1.5 0 0.6
v -1.4 0 0.6
v 0.6 0 0.6
v 0.7 0 0.6
v 1.8 0 0.5
v 1.9 0 0.5
v 1.8 0 0.4
v 1.9 0 0.4
v 0.7 0 0.3
v 0.8 0 0.3
v 0 0 0.2
v 0.1 0 0.2
v 0.7 0 0.2
v 0.8 0 0.2
v 0 0 0.1
v 0.1 0 0.1
v -1.7 0 -0.4
v -1.6 0 -0.4
v 0.4 0 -0.4
v 0.5 0 -0.4
v -1.7 0 -0.5
v -1.6 0 -0.5
v -0.6 0 -0.5
v -0.5 0 -0.5
v 0.4 0 -0.5
v 0.5 0 -0.5
v -0.6 0 -0.6
v -0.5 0 -0.6
v 0.7 0 -0.6
v 0.8 0 -0.6
v 0.7 0 -0.7
v 0.8 0 -0.7
v 1.8 0 -0.7
v 1.9 0 -0.7
v 1.8 0 -0.8
v 1.9 0 -0.8
v -1.2 0 -0.9
v -1.1 0 -0.9
v -1.2 0 -1
v -1.1 0 -1
v -0.1 0 -1.1
v 0 0 -1.1
v -0.1 0 -1.2
v 0 0 -1.2
v -1.9 0 -1.5
v -1.8 0 -1.5
v -1.9 0 -1.6
v -1.8 0 -1.6
v 1 0 -1.6
v 1.1 0 -1.6
v 1 0 -1.7
v 1.1 0 -1.7
v 0.4 0.6 1.9
v 0.5 0.6 1.9
v 0.4 0.6 1.8
v 0.5 0.6 1.8
v -1.6 0.6 1.7
v -1.5 0.6 1.7
v -0.1 0.6 1.7
v 0 0.6 1.7
v 1.6 0.6 1.7
v 1.7 0.6 1.7
v -1.6 0.6 1.6
v -1.5 0.6 1.6
v -0.1 0.6 1.6
v 0 0.6 1.6
v 1.6 0.6 1.6
v 1.7 0.6 1.6
v 0.9 0.6 1.3
v 1 0.6 1.3
v 0.9 0.6 1.2
v 1 0.6 1.2
v 0.1 0.6 1.1
v 0.2 0.6 1.1
v 0.1 0.6 1
v 0.2 0.6 1
v -0.7 0.6 0.9
v -0.6 0.6 0.9
v -0.7 0.6 0.8
v -0.6 0.6 0.8
v -1.5 0.6 0.7
v -1.4 0.6 0.7
v 0.6 0.6 0.7
v 0.7 0.6 0.7
v -1.5 0.6 0.6
v -1.4 0.6 0.6
v 0.6 0.6 0.6
v 0.7 0.6 0.6
v 1.8 0.6 0.5
v 1.9 0.6 0.5
v 1.8 0.6 0.4
v 1.9 0.6 0.4
v 0.7 0.6 0.3
v 0.8 0.6 0.3
v 0 0.6 0.2
v 0.1 0.6 0.2
v 0.7 0.6 0.2
v 0.8 0.6 0.2
v 0 0.6 0.1
v 0.1 0.6 0.1
v -1.7 0.6 -0.4
v -1.6 0.6 -0.4
v 0.4 0.6 -0.4
v 0.5 0.6 -0.4
v -1.7 0.6 -0.5
v -1.6 0.6 -0.5
v -0.6 0.6 -0.5
v -0.5 0.6 -0.5
v 0.4 0.6 -0.5
v 0.5 0.6 -0.5
v -0.6 0.6 -0.6
v -0.5 0.6 -0.6
v 0.7 0.6 -0.6
v 0.8 0.6 -0.6
v 0.7 0.6 -0.7
v 0.8 0.6 -0.7
v 1.8 0.6 -0.7
v 1.9 0.6 -0.7
v 1.8 0.6 -0.8
v 1.9 0.6 -0.8
v -1.2 0.6 -0.9
v -1.1 0.6 -0.9
v -1.2 0.6 -1
v -1.1 0.6 -1
v -0.1 0.6 -1.1
v 0 0.6 -1.1
v -0.1 0.6 -1.2
v 0 0.6 -1.2
v -1.9 0.6 -1.5
v -1.8 0.6 -1.5
v -1.9 0.6 -1.6
v -1.8 0.6 -1.6
v 1 0.6 -1.6
v 1.1 0.6 -1.6
v 1 0.6 -1.7
v 1.1 0.6 -1.7

# faces
f 3/1/1 2/1/1 1/1/1
f 4/1/1 2/1/1 3/1/1
f 5/2/1 4/2/1 3/2/1
f 6/2/1 4/2/1 5/2/1
f 9/1/1 8/1/1 7/1/1
f 10/1/1 8/1/1 9/1/1
f 11/2/1 10/2/1 9/2/1
f 12/2/1 10/2/1 11/2/1
f 15/1/1 14/1/1 13/1/1
f 16/1/1 14/1/1 15/1/1
f 17/2/1 16/2/1 15/2/1
f 18/2/1 16/2/1 17/2/1
f 21/1/1 20/1/1 19/1/1
f 22/1/1 20/1/1 21/1/1
f 23/2/1 22/2/1 21/2/1
f 24/2/1 22/2/1 23/2/1
f 27/1/1 26/1/1 25/1/1
f 28/1/1 26/1/1 27/1/1
f 29/2/1 28/2/1 27/2/1
f 30/2/1 28/2/1 29/2/1
f 33/1/1 32/1/1 31/1/1
f 34/1/1 32/1/1 33/1/1
f 35/2/1 34/2/1 33/2/1
f 36/2/1 34/2/1 35/2/1
f 39/1/1 38/1/1 37/1/1
f 40/1/1 38/1/1 39/1/1
f 41/2/1 40/2/1 39/2/1
f 42/2/1 40/2/1 41/2/1
f 47/1/1 44/1/1 43/1/1
f 48/1/1 44/1/1 47/1/1
f 49/1/1 46/1/1 45/1/1
f 50/1/1 46/1/1 49/1/1
f 51/2/1 48/2/1 47/2/1
f 52/2/1 48/2/1 51/2/1
f 53/2/1 50/2/1 49/2/1
f 54/2/1 50/2/1 53/2/1
f 57/1/1 56/1/1 55/1/1
f 58/1/1 56/1/1 57/1/1
f 59/2/1 58/2/1 57/2/1
f 60/2/1 58/2/1 59/2/1
f 63/1/1 62/1/1 61/1/1
f 64/1/1 62/1/1 63/1/1
f 65/2/1 64/2/1 63/2/1
f 66/2/1 64/2/1 65/2/1
f 71/1/1 68/1/1 67/1/1
f 72/1/1 68/1/1 71/1/1
f 73/1/1 70/1/1 69/1/1
f 74/1/1 70/1/1 73/1/1
f 75/2/1 72/2/1 71/2/1
f 76/2/1 72/2/1 75/2/1
f 77/2/1 74/2/1 73/2/1
f 78/2/1 74/2/1 77/2/1
f 81/1/1 80/1/1 79/1/1
f 82/1/1 80/1/1 81/1/1
f 83/2/1 82/2/1 81/2/1
f 84/2/1 82/2/1 83/2/1
f 89/1/1 86/1/1 85/1/1
f 90/1/1 86/1/1 89/1/1
f 91/1/1 88/1/1 87/1/1
f 92/1/1 88/1/1 91/1/1
f 93/2/1 90/2/1 89/2/1
f 94/2/1 90/2/1 93/2/1
f 95/2/1 92/2/1 91/2/1
f 96/2/1 92/2/1 95/2/1
f 99/1/1 98/1/1 97/1/1
f 100/1/1 98/1/1 99/1/1
f 101/2/1 100/2/1 99/2/1
f 102/2/1 100/2/1 101/2/1
f 105/1/1 104/1/1 103/1/1
f 106/1/1 104/1/1 105/1/1
f 107/2/1 106/2/1 105/2/1
f 108/2/1 106/2/1 107/2/1
f 111/1/1 110/1/1 109/1/1
f 112/1/1 110/1/1 111/1/1
f 113/2/1 112/2/1 111/2/1
f 114/2/1 112/2/1 113/2/1
f 119/1/1 116/1/1 115/1/1
f 120/1/1 116/1/1 119/1/1
f 121/1/1 118/1/1 117/1/1
f 122/1/1 118/1/1 121/1/1
f 123/2/1 120/2/1 119/2/1
f 124/2/1 120/2/1 123/2/1
f 125/2/1 122/2/1 121/2/1
f 126/2/1 122/2/1 125/2/1
f 127/1/2 128/1/2 129/1/2
f 129/1/2 128/1/2 130/1/2
f 129/2/2 130/2/2 131/2/2
f 131/2/2 130/2/2 132/2/2
f 133/1/2 134/1/2 135/1/2
f 135/1/2 134/1/2 136/1/2
f 135/2/2 136/2/2 137/2/2
f 137/2/2 136/2/2 138/2/2
f 139/1/2 140/1/2 141/1/2
f 141/1/2 140/1/2 142/1/2
f 141/2/2 142/2/2 143/2/2
f 143/2/2 142/2/2 144/2/2
f 145/1/2 146/1/2 147/1/2
f 147/1/2 146/1/2 148/1/2
f 147/2/2 148/2/2 149/2/2
f 149/2/2 148/2/2 150/2/2
f 151/1/2 152/1/2 153/1/2
f 153/1/2 152/1/2 154/1/2
f 153/2/2 154/2/2 155/2/2
f 155/2/2 154/2/2 156/2/2
f 157/1/2 158/1/2 159/1/2
f 159/1/2 158/1/2 160/1/2
f 159/2/2 160/2/2 161/2/2
f 161/2/2 160/2/2 162/2/2
f 163/1/2 164/1/2 165/1/2
f 165/1/2 164/1/2 166/1/2
f 165/2/2 166/2/2 167/2/2
f 167/2/2 166/2/2 168/2/2
f 169/1/2 170/1/2 173/1/2
f 173/1/2 170/1/2 174/1/2
f 171/1/2 172/1/2 175/1/2
f 175/1/2 172/1/2 176/1/2
f 173/2/2 174/2/2 177/2/2
f 177/2/2 174/2/2 178/2/2
f 175/2/2 176/2/2 179/2/2
f 179/2/2 176/2/2 180/2/2
f 181/1/2 182/1/2 183/1/2
f 183/1/2 182/1/2 184/1/2
f 183/2/2 184/2/2 185/2/2
f 185/2/2 184/2/2 186/2/2
f 187/1/2 188/1/2 189/1/2
f 189/1/2 188/1/2 190/1/2
f 189/2/2 190/2/2 191/2/2
f 191/2/2 190/2/2 192/2/2
f 193/1/2 194/1/2 197/1/2
f 197/1/2 194/1/2 198/1/2
f 195/1/2 196/1/2 199/1/2
f 199/1/2 196/1/2 200/1/2
f 197/2/2 198/2/2 201/2/2
f 201/2/2 198/2/2 202/2/2
f 199/2/2 200/2/2 203/2/2
f 203/2/2 200/2/2 204/2/2
f 205/1/2 206/1/2 207/1/2
f 207/1/2 206/1/2 208/1/2
f 207/2/2 208/2/2 209/2/2
f 209/2/2 208/2/2 210/2/2
f 211/1/2 212/1/2 215/1/2
f 215/1/2 212/1/2 216/1/2
f 213/1/2 214/1/2 217/1/2
f 217/1/2 214/1/2 218/1/2
f 215/2/2 216/2/2 219/2/2
f 219/2/2 216/2/2 220/2/2
f 217/2/2 218/2/2 221/2/2
f 221/2/2 218/2/2 222/2/2
f 223/1/2 224/1/2 225/1/2
f 225/1/2 224/1/2 226/1/2
f 225/2/2 226/2/2 227/2/2
f 227/2/2 226/2/2 228/2/2
f 229/1/2 230/1/2 231/1/2
f 231/1/2 230/1/2 232/1/2
f 231/2/2 232/2/2 233/2/2
f 233/2/2 232/2/2 234/2/2
f 235/1/2 236/1/2 237/1/2
f 237/1/2 236/1/2 238/1/2
f 237/2/2 238/2/2 239/2/2
f 239/2/2 238/2/2 240/2/2
f 241/1/2 242/1/2 245/1/2
f 245/1/2 242/1/2 246/1/2
f 243/1/2 244/1/2 247/1/2
f 247/1/2 244/1/2 248/1/2
f 245/2/2 246/2/2 249/2/2
f 249/2/2 246/2/2 250/2/2
f 247/2/2 248/2/2 251/2/2
f 251/2/2 248/2/2 252/2/2
f 256/1/3 254/1/3 253/1/3
f 257/2/3 255/2/3 254/2/3
f 257/1/3 254/1/3 256/1/3
f 258/2/3 255/2/3 257/2/3
f 262/1/3 260/1/3 259/1/3
f 263/2/3 261/2/3 260/2/3
f 263/1/3 260/1/3 262/1/3
f 264/2/3 261/2/3 263/2/3
f 268/1/3 266/1/3 265/1/3
f 269/2/3 267/2/3 266/2/3
f 269/1/3 266/1/3 268/1/3
f 270/2/3 267/2/3 269/2/3
f 274/1/3 272/1/3 271/1/3
f 275/2/3 273/2/3 272/2/3
f 275/1/3 272/1/3 274/1/3
f 276/2/3 273/2/3 275/2/3
f 280/1/3 278/1/3 277/1/3
f 281/2/3 279/2/3 278/2/3
f 281/1/3 278/1/3 280/1/3
f 282/2/3 279/2/3 281/2/3
f 286/1/3 284/1/3 283/1/3
f 287/2/3 285/2/3 284/2/3
f 287/1/3 284/1/3 286/1/3
f 288/2/3 285/2/3 287/2/3
f 292/1/3 290/1/3 289/1/3
f 293/2/3 291/2/3 290/2/3
f 293/1/3 290/1/3 292/1/3
f 294/2/3 291/2/3 293/2/3
f 298/1/3 296/1/3 295/1/3
f 299/2/3 297/2/3 296/2/3
f 299/1/3 296/1/3 298/1/3
f 300/2/3 297/2/3 299/2/3
f 304/1/3 302/1/3 301/1/3
f 305/2/3 303/2/3 302/2/3
f 305/1/3 302/1/3 304/1/3
f 306/2/3 303/2/3 305/2/3
f 310/1/3 308/1/3 307/1/3
f 311/2/3 309/2/3 308/2/3
f 311/1/3 308/1/3 310/1/3
f 312/2/3 309/2/3 311/2/3
f 316/1/3 314/1/3 313/1/3
f 317/2/3 315/2/3 314/2/3
f 317/1/3 314/1/3 316/1/3
f 318/2/3 315/2/3 317/2/3
f 322/1/3 320/1/3 319/1/3
f 323/2/3 321/2/3 320/2/3
f 323/1/3 320/1/3 322/1/3
f 324/2/3 321/2/3 323/2/3
f 328/1/3 326/1/3 325/1/3
f 329/2/3 327/2/3 326/2/3
f 329/1/3 326/1/3 328/1/3
f 330/2/3 327/2/3 329/2/3
f 334/1/3 332/1/3 331/1/3
f 335/2/3 333/2/3 332/2/3
f 335/1/3 332/1/3 334/1/3
f 336/2/3 333/2/3 335/2/3
f 340/1/3 338/1/3 337/1/3
f 341/2/3 339/2/3 338/2/3
f 341/1/3 338/1/3 340/1/3
f 342/2/3 339/2/3 341/2/3
f 346/1/3 344/1/3 343/1/3
f 347/2/3 345/2/3 344/2/3
f 347/1/3 344/1/3 346/1/3
f 348/2/3 345/2/3 347/2/3
f 352/1/3 350/1/3 349/1/3
f 353/2/3 351/2/3 350/2/3
f 353/1/3 350/1/3 352/1/3
f 354/2/3 351/2/3 353/2/3
f 358/1/3 356/1/3 355/1/3
f 359/2/3 357/2/3 356/2/3
f 359/1/3 356/1/3 358/1/3
f 360/2/3 357/2/3 359/2/3
f 364/1/3 362/1/3 361/1/3
f 365/2/3 363/2/3 362/2/3
f 365/1/3 362/1/3 364/1/3
f 366/2/3 363/2/3 365/2/3
f 370/1/3 368/1/3 367/1/3
f 371/2/3 369/2/3 368/2/3
f 371/1/3 368/1/3 370/1/3
f 372/2/3 369/2/3 371/2/3
f 376/1/3 374/1/3 373/1/3
f 377/2/3 375/2/3 374/2/3
f 377/1/3 374/1/3 376/1/3
f 378/2/3 375/2/3 377/2/3
f 379/1/4 380/1/4 382/1/4
f 380/2/4 381/2/4 383/2/4
f 382/1/4 380/1/4 383/1/4
f 383/2/4 381/2/4 384/2/4
f 385/1/4 386/1/4 388/1/4
f 386/2/4 387/2/4 389/2/4
f 388/1/4 386/1/4 389/1/4
f 389/2/4 387/2/4 390/2/4
f 391/1/4 392/1/4 394/1/4
f 392/2/4 393/2/4 395/2/4
f 394/1/4 392/1/4 395/1/4
f 395/2/4 393/2/4 396/2/4
f 397/1/4 398/1/4 400/1/4
f 398/2/4 399/2/4 401/2/4
f 400/1/4 398/1/4 401/1/4
f 401/2/4 399/2/4 402/2/4
f 403/1/4 404/1/4 406/1/4
f 404/2/4 405/2/4 407/2/4
f 406/1/4 404/1/4 407/1/4
f 407/2/4 405/2/4 408/2/4
f 409/1/4 410/1/4 412/1/4
f 410/2/4 411/2/4 413/2/4
f 412/1/4 410/1/4 413/1/4
f 413/2/4 411/2/4 414/2/4
f 415/1/4 416/1/4 418/1/4
f 416/2/4 417/2/4 419/2/4
f 418/1/4 416/1/4 419/1/4
f 419/2/4 417/2/4 420/2/4
f 421/1/4 422/1/4 424/1/4
f 422/2/4 423/2/4 425/2/4
f 424/1/4 422/1/4 425/1/4
f 425/2/4 423/2/4 426/2/4
f 427/1/4 428/1/4 430/1/4
f 428/2/4 429/2/4 431/2/4
f 430/1/4 428/1/4 431/1/4
f 431/2/4 429/2/4 432/2/4
f 433/1/4 434/1/4 436/1/4
f 434/2/4 435/2/4 437/2/4
f 436/1/4 434/1/4 437/1/4
f 437/2/4 435/2/4 438/2/4
f 439/1/4 440/1/4 442/1/4
f 440/2/4 441/2/4 443/2/4
f 442/1/4 440/1/4 443/1/4
f 443/2/4 441/2/4 444/2/4
f 445/1/4 446/1/4 448/1/4
f 446/2/4 447/2/4 449/2/4
f 448/1/4 446/1/4 449/1/4
f 449/2/4 447/2/4 450/2/4
f 451/1/4 452/1/4 454/1/4
f 452/2/4 453/2/4 455/2/4
f 454/1/4 452/1/4 455/1/4
f 455/2/4 453/2/4 456/2/4
f 457/1/4 458/1/4 460/1/4
f 458/2/4 459/2/4 461/2/4
f 460/1/4 458/1/4 461/1/4
f 461/2/4 459/2/4 462/2/4
f 463/1/4 464/1/4 466/1/4
f 464/2/4 465/2/4 467/2/4
f 466/1/4 464/1/4 467/1/4
f 467/2/4 465/2/4 468/2/4
f 469/1/4 470/1/4 472/1/4
f 470/2/4 471/2/4 473/2/4
f 472/1/4 470/1/4 473/1/4
f 473/2/4 471/2/4 474/2/4
f 475/1/4 476/1/4 478/1/4
f 476/2/4 477/2/4 479/2/4
f 478/1/4 476/1/4 479/1/4
f 479/2/4 477/2/4 480/2/4
f 481/1/4 482/1/4 484/1/4
f 482/2/4 483/2/4 485/2/4
f 484/1/4 482/1/4 485/1/4
f 485/2/4 483/2/4 486/2/4
f 487/1/4 488/1/4 490/1/4
f 488/2/4 489/2/4 491/2/4
f 490/1/4 488/1/4 491/1/4
f 491/2/4 489/2/4 492/2/4
f 493/1/4 494/1/4 496/1/4
f 494/2/4 495/2/4 497/2/4
f 496/1/4 494/1/4 497/1/4
f 497/2/4 495/2/4 498/2/4
f 499/1/4 500/1/4 502/1/4
f 500/2/4 501/2/4 503/2/4
f 502/1/4 500/1/4 503/1/4
f 503/2/4 501/2/4 504/2/4
f 507/1/5 506/1/5 505/1/5
f 508/1/5 506/1/5 507/1/5
f 515/1/5 510/1/5 509/1/5
f 516/1/5 510/1/5 515/1/5
f 517/1/5 512/1/5 511/1/5
f 518/1/5 512/1/5 517/1/5
f 519/1/5 514/1/5 513/1/5
f 520/1/5 514/1/5 519/1/5
f 523/1/5 522/1/5 521/1/5
f 524/1/5 522/1/5 523/1/5
f 527/1/5 526/1/5 525/1/5
f 528/1/5 526/1/5 527/1/5
f 531/1/5 530/1/5 529/1/5
f 532/1/5 530/1/5 531/1/5
f 537/1/5 534/1/5 533/1/5
f 538/1/5 534/1/5 537/1/5
f 539/1/5 536/1/5 535/1/5
f 540/1/5 536/1/5 539/1/5
f 543/1/5 542/1/5 541/1/5
f 544/1/5 542/1/5 543/1/5
f 549/1/5 546/1/5 545/1/5
f 550/1/5 546/1/5 549/1/5
f 551/1/5 548/1/5 547/1/5
f 552/1/5 548/1/5 551/1/5
f 557/1/5 554/1/5 553/1/5
f 558/1/5 554/1/5 557/1/5
f 561/1/5 556/1/5 555/1/5
f 562/1/5 556/1/5 561/1/5
f 563/1/5 560/1/5 559/1/5
f 564/1/5 560/1/5 563/1/5
f 567/1/5 566/1/5 565/1/5
f 568/1/5 566/1/5 567/1/5
f 571/1/5 570/1/5 569/1/5
f 572/1/5 570/1/5 571/1/5
f 575/1/5 574/1/5 573/1/5
f 576/1/5 574/1/5 575/1/5
f 579/1/5 578/1/5 577/1/5
f 580/1/5 578/1/5 579/1/5
f 583/1/5 582/1/5 581/1/5
f 584/1/5 582/1/5 583/1/5
f 587/1/5 586/1/5 585/1/5
f 588/1/5 586/1/5 587/1/5
f 589/2/6 590/2/6 591/2/6
f 591/2/6 590/2/6 592/2/6
f 593/2/6 594/2/6 599/2/6
f 599/2/6 594/2/6 600/2/6
f 595/2/6 596/2/6 601/2/6
f 601/2/6 596/2/6 602/2/6
f 597/2/6 598/2/6 603/2/6
f 603/2/6 598/2/6 604/2/6
f 605/2/6 606/2/6 607/2/6
f 607/2/6 606/2/6 608/2/6
f 609/2/6 610/2/6 611/2/6
f 611/2/6 610/2/6 612/2/6
f 613/2/6 614/2/6 615/2/6
f 615/2/6 614/2/6 616/2/6
f 617/2/6 618/2/6 621/2/6
f 621/2/6 618/2/6 622/2/6
f 619/2/6 620/2/6 623/2/6
f 623/2/6 620/2/6 624/2/6
f 625/2/6 626/2/6 627/2/6
f 627/2/6 626/2/6 628/2/6
f 629/2/6 630/2/6 633/2/6
f 633/2/6 630/2/6 634/2/6
f 631/2/6 632/2/6 635/2/6
f 635/2/6 632/2/6 636/2/6
f 637/2/6 638/2/6 641/2/6
f 641/2/6 638/2/6 642/2/6
f 639/2/6 640/2/6 645/2/6
f 645/2/6 640/2/6 646/2/6
f 643/2/6 644/2/6 647/2/6
f 647/2/6 644/2/6 648/2/6
f 649/2/6 650/2/6 651/2/6
f 651/2/6 650/2/6 652/2/6
f 653/2/6 654/2/6 655/2/6
f 655/2/6 654/2/6 656/2/6
f 657/2/6 658/2/6 659/2/6
f 659/2/6 658/2/6 660/2/6
f 661/2/6 662/2/6 663/2/6
f 663/2/6 662/2/6 664/2/6
f 665/2/6 666/2/6 667/2/6
f 667/2/6 666/2/6 668/2/6
f 669/2/6 670/2/6 671/2/6
f 671/2/6 670/2/6 672/2/6
